<svg width="64" height="64" viewBox="0 0 64 64" fill="none" xmlns="http://www.w3.org/2000/svg">
  <defs>
    <linearGradient id="bg" x1="0" y1="0" x2="0" y2="1">
      <stop offset="0%" stop-color="#23272F"/>
      <stop offset="100%" stop-color="#181A20"/>
    </linearGradient>
    <radialGradient id="lensHighlight" cx="0.5" cy="0.5" r="0.7">
      <stop offset="0%" stop-color="#fff" stop-opacity="0.4"/>
      <stop offset="100%" stop-color="#fff" stop-opacity="0"/>
    </radialGradient>
  </defs>
  <rect width="64" height="64" rx="16" fill="url(#bg)"/>
  <!-- Movie Projector Body -->
  <rect x="12" y="26" width="40" height="20" rx="6" fill="#23272F" stroke="#fff" stroke-width="2"/>
  <!-- Projector Lens -->
  <ellipse cx="50" cy="36" rx="5" ry="8" fill="#222" stroke="#fff" stroke-width="1.5"/>
  <ellipse cx="50" cy="36" rx="2.5" ry="4" fill="#fff" opacity="0.18"/>
  <ellipse cx="50" cy="36" rx="1.3" ry="2.2" fill="url(#lensHighlight)"/>
  <!-- Projector Reels -->
  <circle cx="22" cy="22" r="6" fill="#23272F" stroke="#fff" stroke-width="2"/>
  <circle cx="22" cy="22" r="2.2" fill="#fff" opacity="0.18"/>
  <circle cx="38" cy="22" r="6" fill="#23272F" stroke="#fff" stroke-width="2"/>
  <circle cx="38" cy="22" r="2.2" fill="#fff" opacity="0.18"/>
  <!-- Projector Stand -->
  <rect x="28" y="46" width="8" height="6" rx="2" fill="#222" stroke="#fff" stroke-width="1"/>
  <!-- Light Beam -->
  <polygon points="55,30 64,20 64,52 55,42" fill="#fff" opacity="0.13"/>
  <!-- Play triangle overlay -->
  <polygon points="34,34 44,39 34,44" fill="#fff" opacity="0.85"/>
</svg>
